<?xml version="1.0" encoding="UTF-8" standalone="no"?>
<!-- Created with Inkscape (http://www.inkscape.org/) -->

<svg
   xmlns:dc="http://purl.org/dc/elements/1.1/"
   xmlns:cc="http://creativecommons.org/ns#"
   xmlns:rdf="http://www.w3.org/1999/02/22-rdf-syntax-ns#"
   xmlns:svg="http://www.w3.org/2000/svg"
   xmlns="http://www.w3.org/2000/svg"
   xmlns:sodipodi="http://sodipodi.sourceforge.net/DTD/sodipodi-0.dtd"
   xmlns:inkscape="http://www.inkscape.org/namespaces/inkscape"
   width="744.09448819"
   height="1052.3622047"
   id="svg2610"
   sodipodi:version="0.32"
   inkscape:version="0.48+devel r10001"
   sodipodi:docname="xidgets.svg"
   inkscape:output_extension="org.inkscape.output.svg.inkscape"
   inkscape:export-filename="/Applications/eclipse342/workspace/Xidget/docs/web/xidgets.gif.png"
   inkscape:export-xdpi="414.16864"
   inkscape:export-ydpi="414.16864"
   version="1.1">
  <sodipodi:namedview
     id="base"
     pagecolor="#ffffff"
     bordercolor="#ffffff"
     borderopacity="0"
     inkscape:pageopacity="0"
     inkscape:pageshadow="0"
     inkscape:zoom="5.6568542"
     inkscape:cx="-1301.2843"
     inkscape:cy="1511.919"
     inkscape:document-units="px"
     inkscape:current-layer="layer2"
     showgrid="false"
     inkscape:window-width="1920"
     inkscape:window-height="1152"
     inkscape:window-x="0"
     inkscape:window-y="0"
     inkscape:window-maximized="0">
    <inkscape:grid
       type="xygrid"
       id="grid3307"
       empspacing="5"
       visible="true"
       enabled="true"
       snapvisiblegridlinesonly="true" />
  </sodipodi:namedview>
  <defs
     id="defs2612">
    <inkscape:perspective
       sodipodi:type="inkscape:persp3d"
       inkscape:vp_x="0 : 526.18109 : 1"
       inkscape:vp_y="0 : 1000 : 0"
       inkscape:vp_z="744.09448 : 526.18109 : 1"
       inkscape:persp3d-origin="372.04724 : 350.78739 : 1"
       id="perspective2618" />
  </defs>
  <metadata
     id="metadata2615">
    <rdf:RDF>
      <cc:Work
         rdf:about="">
        <dc:format>image/svg+xml</dc:format>
        <dc:type
           rdf:resource="http://purl.org/dc/dcmitype/StillImage" />
        <dc:title></dc:title>
      </cc:Work>
    </rdf:RDF>
  </metadata>
  <g
     inkscape:groupmode="layer"
     id="layer2"
     inkscape:label="Lines"
     style="display:inline">
    <path
       style="fill:none;stroke:#646464;stroke-width:1px;stroke-linecap:butt;stroke-linejoin:miter;stroke-opacity:1;display:inline"
       d="m -1315,-485.13781 14.4643,0"
       id="path3377"
       inkscape:connector-curvature="0"
       sodipodi:nodetypes="cc" />
    <path
       style="fill:none;stroke:#646464;stroke-width:1px;stroke-linecap:butt;stroke-linejoin:miter;stroke-opacity:1;display:inline"
       d="m -1292.8407,-456.03067 2.0907,0"
       id="path3379"
       sodipodi:nodetypes="cc"
       inkscape:connector-curvature="0" />
    <path
       style="fill:none;stroke:#646464;stroke-width:1px;stroke-linecap:butt;stroke-linejoin:miter;stroke-opacity:1"
       d="m -1269.875,-456.11995 9.0281,0"
       id="path3383"
       sodipodi:nodetypes="cc"
       inkscape:connector-curvature="0" />
    <path
       style="fill:none;stroke:#646464;stroke-width:1px;stroke-linecap:butt;stroke-linejoin:miter;stroke-opacity:1"
       d="m -1231.9962,-456.20924 8.8176,0"
       id="path3385"
       sodipodi:nodetypes="cc"
       inkscape:connector-curvature="0" />
    <path
       style="fill:none;fill-rule:evenodd;stroke:#646464;stroke-width:1px;stroke-linecap:butt;stroke-linejoin:miter;stroke-opacity:1"
       d="M -1241,-485.13781 L -1211.6071,-485.13781"
       id="path3387" />
    <path
       style="fill:none;fill-rule:evenodd;stroke:#646464;stroke-width:1px;stroke-linecap:butt;stroke-linejoin:miter;stroke-opacity:1;display:inline"
       d="M -1345.3789,-456.03082 L -1341.9132,-456.03082"
       id="path2405"
       sodipodi:nodetypes="cc" />
    <path
       style="fill:none;stroke:#646464;stroke-width:1px;stroke-linecap:butt;stroke-linejoin:miter;stroke-opacity:1;display:inline"
       d="m -1291.7039,-485.13782 2.8344,0"
       id="path2407"
       sodipodi:nodetypes="cc"
       inkscape:connector-curvature="0" />
    <path
       style="fill:none;stroke:#646464;stroke-width:1px;stroke-linecap:butt;stroke-linejoin:miter;stroke-opacity:1;display:inline"
       d="m -1249.7131,-485.13782 3.9076,0"
       id="path2411"
       sodipodi:nodetypes="cc"
       inkscape:connector-curvature="0" />
  </g>
  <g
     inkscape:label="Top"
     inkscape:groupmode="layer"
     id="layer1"
     style="display:inline">
    <text
       id="text4914"
       y="-463.8768"
       x="-1346.5333"
       style="font-size:36px;font-style:normal;font-variant:normal;font-weight:normal;font-stretch:normal;fill:#000000;fill-opacity:1;stroke:none;stroke-width:1px;stroke-linecap:butt;stroke-linejoin:miter;stroke-opacity:1;font-family:Bordeaux Roman Bold LET;-inkscape-font-specification:Bordeaux Roman Bold LET"
       xml:space="preserve"><tspan
         y="-463.8768"
         x="-1346.5333"
         id="tspan4916"
         sodipodi:role="line" /></text>
    <text
       id="text4927"
       y="-404.78287"
       x="-1370.2719"
       style="font-size:36px;font-style:normal;font-variant:normal;font-weight:normal;font-stretch:normal;fill:#000000;fill-opacity:1;stroke:none;stroke-width:1px;stroke-linecap:butt;stroke-linejoin:miter;stroke-opacity:1;font-family:Georgia;-inkscape-font-specification:Georgia"
       xml:space="preserve"><tspan
         y="-404.78287"
         x="-1370.2719"
         id="tspan4929"
         sodipodi:role="line" /></text>
    <text
       xml:space="preserve"
       style="font-size:14px;font-style:normal;font-variant:normal;font-weight:bold;font-stretch:normal;fill:#646464;fill-opacity:1;stroke:none;stroke-width:1px;stroke-linecap:butt;stroke-linejoin:miter;stroke-opacity:1;font-family:Hiragino Mincho Pro W6;-inkscape-font-specification:Hiragino Mincho Pro W6 Semi-Bold"
       x="-1291.7396"
       y="-482.51129"
       id="text5815"><tspan
         sodipodi:role="line"
         x="-1291.7396"
         y="-482.51129"
         style="font-size:8px;fill:#646464;fill-opacity:1"
         id="tspan2395" /></text>
    <text
       xml:space="preserve"
       style="font-size:14px;font-style:normal;font-variant:normal;font-weight:bold;font-stretch:normal;fill:#ffffff;fill-opacity:1;stroke:none;stroke-width:1px;stroke-linecap:butt;stroke-linejoin:miter;stroke-opacity:1;font-family:Hiragino Mincho Pro W6;-inkscape-font-specification:Hiragino Mincho Pro W6 Semi-Bold"
       x="-1342.7452"
       y="-456.30063"
       id="text3201"><tspan
         sodipodi:role="line"
         id="tspan3203"
         x="-1342.7452"
         y="-456.30063" /></text>
    <text
       xml:space="preserve"
       style="font-size:14px;font-style:normal;font-variant:normal;font-weight:bold;font-stretch:normal;fill:#000000;fill-opacity:1;stroke:none;stroke-width:1px;stroke-linecap:butt;stroke-linejoin:miter;stroke-opacity:1;font-family:Hiragino Mincho Pro W6;-inkscape-font-specification:Hiragino Mincho Pro W6 Semi-Bold"
       x="-1343.5029"
       y="-461.85648"
       id="text3205"><tspan
         sodipodi:role="line"
         id="tspan3207"
         x="-1343.5029"
         y="-461.85648" /></text>
    <path
       style="font-size:36px;font-style:normal;font-variant:normal;font-weight:normal;font-stretch:normal;fill:#787878;fill-opacity:1;stroke:none;font-family:Gill Sans;-inkscape-font-specification:Gill Sans"
       d="m -1362.159,-471.06818 13.572,-7.452 0,-2.52 -16.452,9.504 0,0.936 16.452,9.54 0,-2.52 -13.572,-7.488"
       id="path4561"
       inkscape:connector-curvature="0" />
    <path
       style="font-size:36px;font-style:normal;font-variant:normal;font-weight:normal;font-stretch:normal;fill:#bcbcbc;fill-opacity:1;stroke:none;stroke-width:1px;stroke-linecap:butt;stroke-linejoin:miter;stroke-opacity:1;font-family:Gill Sans;-inkscape-font-specification:Gill Sans"
       d="m -1336.5619,-468.40418 2.988,4.536 c 0.36,0.504 0.54,0.972 0.54,1.368 0,0.72 -0.612,1.08 -2.052,1.116 l 0,0.828 9.648,0 0,-0.792 c -1.476,-0.252 -2.232,-0.828 -3.42,-2.592 l -4.788,-7.2 2.52,-3.456 c 1.944,-2.628 3.456,-3.744 5.328,-3.924 l 0,-0.828 -7.812,0 0,0.828 c 1.512,0.072 2.232,0.504 2.232,1.296 0,0.612 -0.288,1.368 -0.936,2.268 l -1.98,2.88 -2.484,-3.816 c -0.504,-0.756 -0.648,-1.116 -0.648,-1.584 0,-0.72 0.468,-1.008 1.764,-1.044 l 0,-0.828 -9.324,0 0,0.828 c 1.548,0.288 2.16,0.756 3.42,2.628 l 4.32,6.48 -3.096,4.248 c -1.872,2.556 -3.168,3.528 -5.04,3.816 l 0,0.792 7.992,0 0,-0.828 c -1.728,-0.144 -2.52,-0.612 -2.52,-1.512 0,-0.576 0.288,-1.26 0.864,-2.052 l 2.484,-3.456"
       id="path4559" />
    <path
       style="font-size:36px;font-style:normal;font-variant:normal;font-weight:normal;font-stretch:normal;fill:#bcbcbc;fill-opacity:1;stroke:none;stroke-width:1px;stroke-linecap:butt;stroke-linejoin:miter;stroke-opacity:1;font-family:Gill Sans;-inkscape-font-specification:Gill Sans"
       d="m -1323.9884,-479.34818 0,0.864 c 2.52,0.036 2.7,0.288 2.7,3.492 l 0,9.972 c 0,3.204 -0.252,3.564 -2.808,3.6 l 0,0.864 10.008,0 0,-0.864 c -2.556,-0.036 -2.808,-0.396 -2.808,-3.6 l 0,-7.812 c 0,-2.304 0.072,-4.824 0.216,-6.984 l -7.308,0.468"
       id="path4557" />
    <path
       style="font-size:36px;font-style:normal;font-variant:normal;font-weight:normal;font-stretch:normal;fill:#bcbcbc;fill-opacity:1;stroke:none;stroke-width:1px;stroke-linecap:butt;stroke-linejoin:miter;stroke-opacity:1;font-family:Gill Sans;-inkscape-font-specification:Gill Sans"
       d="m -1321.6484,-485.50418 c 0,1.44 1.152,2.592 2.592,2.592 1.44,0 2.592,-1.152 2.592,-2.592 0,-1.44 -1.152,-2.592 -2.592,-2.592 -1.44,0 -2.592,1.152 -2.592,2.592"
       id="path4555" />
    <path
       id="path4551"
       style="font-size:36px;font-style:normal;font-variant:normal;font-weight:normal;font-stretch:normal;fill:#bcbcbc;fill-opacity:1;stroke:none;stroke-width:1px;stroke-linecap:butt;stroke-linejoin:miter;stroke-opacity:1;font-family:Gill Sans;-inkscape-font-specification:Gill Sans"
       d="m -1297.9609,-470.24018 c 0,5.72399 -1.656,9.108 -4.428,9.108 -1.008,0 -1.908,-0.468 -2.484,-1.296 -1.08,-1.512 -1.656,-4.24801 -1.656,-7.632 0,-5.652 1.548,-8.856 4.284,-8.856 2.772,0 4.284,3.096 4.284,8.676 m -2.844,-17.244 0,0.828 c 2.52,0.036 2.736,0.288 2.736,3.636 l 0,5.184 c -1.404,-1.404 -2.988,-2.052 -4.968,-2.052 -5.04,0 -8.28,4.068 -8.28,10.44 0,3.096 0.828,5.616 2.376,7.272 1.332,1.368 3.204,2.16 5.256,2.16 2.376,0 4.14,-0.864 5.904,-2.844 l 0.144,2.628 6.336,-0.324 0,-0.828 c -1.188,-0.036 -1.368,-0.072 -1.692,-0.288 -0.54,-0.432 -0.684,-1.404 -0.684,-4.32 l 0,-14.544 c 0,-2.772 0.072,-4.644 0.216,-7.344 l -7.344,0.396" />
    <path
       id="path4545"
       style="font-size:36px;font-style:normal;font-variant:normal;font-weight:normal;font-stretch:normal;fill:#bcbcbc;fill-opacity:1;stroke:none;stroke-width:1px;stroke-linecap:butt;stroke-linejoin:miter;stroke-opacity:1;font-family:Gill Sans;-inkscape-font-specification:Gill Sans"
       d="m -1280.0706,-459.98018 c 4.068,0 5.652,0.756 5.652,2.736 0,2.376 -2.16,3.78 -5.688,3.78 -3.708,0 -5.544,-1.44 -5.544,-4.284 0,-1.296 0.36,-2.016 1.152,-2.196 l 4.428,-0.036 m -3.996,-13.428 c 0,-3.708 1.116,-5.652 3.312,-5.652 2.196,0 3.24,1.908 3.24,5.868 0,3.88799 -1.044,5.796 -3.24,5.796 -2.16,0 -3.312,-2.12401 -3.312,-6.012 m 3.42,9.936 c -3.924,0 -4.788,-0.288 -4.788,-1.548 0,-0.792 0.432,-1.296 1.656,-1.944 1.152,0.288 2.16,0.396 3.204,0.396 2.124,0 4.068,-0.576 5.436,-1.656 1.368,-1.08 2.16,-2.88 2.16,-4.896 0,-1.98 -0.612,-3.348 -2.124,-4.824 l 3.528,0 0,-1.584 c -2.52,0.108 -3.78,0.144 -3.852,0.144 -0.9,0 -1.332,-0.036 -2.484,-0.216 -1.296,-0.216 -2.016,-0.288 -2.844,-0.288 -4.716,0 -7.776,2.736 -7.776,6.948 0,1.692 0.54,3.204 1.476,4.104 0.432,0.432 0.864,0.756 2.052,1.404 l -1.836,1.152 c -1.476,0.936 -1.836,1.476 -1.836,2.556 0,0.9 0.36,1.728 0.972,2.376 0.396,0.432 0.756,0.648 1.62,1.044 -2.556,1.44 -2.916,1.872 -2.916,3.384 0,2.808 2.952,4.356 8.208,4.356 2.916,0 5.328,-0.54 7.056,-1.584 1.584,-0.972 2.556,-2.772 2.556,-4.788 0,-1.8 -0.792,-3.132 -2.16,-3.78 -1.368,-0.576 -2.556,-0.756 -5.688,-0.756 l -1.62,0" />
    <path
       id="path4541"
       style="font-size:36px;font-style:normal;font-variant:normal;font-weight:normal;font-stretch:normal;fill:#bcbcbc;fill-opacity:1;stroke:none;stroke-width:1px;stroke-linecap:butt;stroke-linejoin:miter;stroke-opacity:1;font-family:Gill Sans;-inkscape-font-specification:Gill Sans"
       d="m -1264.4888,-471.75218 c 0.144,-1.872 0.36,-3.024 0.756,-4.14 0.756,-2.088 1.944,-3.168 3.492,-3.168 1.404,0 2.412,0.9 3.096,2.808 0.396,1.116 0.54,2.232 0.612,4.5 l -7.956,0 m 12.456,1.044 c -0.072,-2.268 -0.252,-3.348 -0.648,-4.428 -1.188,-3.096 -3.78,-4.752 -7.452,-4.752 -5.472,0 -9.036,3.96 -9.036,10.008 0,6.01199 3.672,9.864 9.396,9.864 3.708,0 6.12,-1.51201 7.92,-4.932 l -0.9,-0.576 c -1.332,2.628 -3.456,4.104 -5.94,4.104 -2.196,0 -3.852,-1.188 -4.896,-3.564 -0.648,-1.512 -0.9,-3.06 -0.936,-5.724 l 12.492,0" />
    <path
       style="font-size:36px;font-style:normal;font-variant:normal;font-weight:normal;font-stretch:normal;fill:#bcbcbc;fill-opacity:1;stroke:none;stroke-width:1px;stroke-linecap:butt;stroke-linejoin:miter;stroke-opacity:1;font-family:Gill Sans;-inkscape-font-specification:Gill Sans"
       d="m -1242.6891,-478.19618 4.356,0 0,-1.152 -4.356,0 c 0,-3.276 0.036,-4.392 0.108,-5.868 l -1.8,0.18 c -0.324,1.8 -0.684,2.844 -1.332,3.852 -0.828,1.296 -1.836,1.836 -3.42,1.908 l 0,1.08 2.052,0 0,11.232 c 0,3.204 0.108,4.068 0.54,4.968 0.684,1.26 2.124,1.98 4.068,1.98 1.872,0 3.456,-0.576 4.932,-1.8 l -0.504,-0.9 c -0.9,0.72 -1.764,1.116 -2.52,1.116 -0.756,0 -1.476,-0.54 -1.764,-1.332 -0.252,-0.72 -0.36,-1.656 -0.36,-3.24 l 0,-12.024"
       id="path4539" />
    <path
       style="font-size:36px;font-style:normal;font-variant:normal;font-weight:normal;font-stretch:normal;fill:#bcbcbc;fill-opacity:1;stroke:none;stroke-width:1px;stroke-linecap:butt;stroke-linejoin:miter;stroke-opacity:1;font-family:Gill Sans;-inkscape-font-specification:Gill Sans"
       d="m -1235.5184,-460.30418 c 1.188,-0.216 1.296,-0.216 1.836,-0.216 0.432,0 0.864,0.036 1.296,0.108 2.124,0.36 2.628,0.432 3.672,0.432 4.068,0 6.48,-2.26801 6.48,-6.012 0,-2.7 -1.188,-4.104 -4.86,-5.796 -3.24,-1.476 -3.24,-1.476 -4.032,-2.088 -0.792,-0.612 -1.116,-1.26 -1.116,-2.196 0,-1.8 1.26,-2.988 3.204,-2.988 2.592,0 4.104,1.944 4.356,5.616 l 1.332,0 0.324,-6.3 c -0.828,0.288 -1.224,0.36 -1.728,0.36 -0.396,0 -0.576,-0.036 -1.584,-0.216 -1.044,-0.18 -1.98,-0.288 -2.556,-0.288 -4.068,0 -6.66,2.232 -6.66,5.724 0,1.296 0.396,2.34 1.26,3.24 0.864,0.936 1.764,1.512 3.888,2.448 4.176,1.944 5.112,2.736 5.112,4.5 0,1.98 -1.332,3.132 -3.528,3.132 -1.764,0 -3.024,-0.72 -4.032,-2.268 -0.576,-0.936 -0.864,-1.908 -1.08,-3.78 l -1.296,0 -0.288,6.588"
       id="path4537" />
    <path
       style="font-size:36px;font-style:normal;font-variant:normal;font-weight:normal;font-stretch:normal;fill:#646464;fill-opacity:1;stroke:none;font-family:Gill Sans;-inkscape-font-specification:Gill Sans"
       d="m -1221.1324,-455.68418 2.16,0 11.988,-29.8 -2.16,0 -11.988,29.8"
       id="path4535"
       inkscape:connector-curvature="0" />
    <path
       style="font-size:36px;font-style:normal;font-variant:normal;font-weight:normal;font-stretch:normal;fill:#646464;fill-opacity:1;stroke:none;font-family:Gill Sans;-inkscape-font-specification:Gill Sans"
       d="m -1193.8453,-471.06818 -13.572,7.488 0,2.52 16.452,-9.54 0,-0.936 -16.452,-9.504 0,2.52 13.572,7.452"
       id="text4931"
       inkscape:connector-curvature="0" />
    <text
       xml:space="preserve"
       style="font-size:14px;font-style:normal;font-variant:normal;font-weight:bold;font-stretch:normal;fill:#646464;fill-opacity:1;stroke:none;stroke-width:1px;stroke-linecap:butt;stroke-linejoin:miter;stroke-opacity:1;font-family:Hiragino Mincho Pro W6;-inkscape-font-specification:Hiragino Mincho Pro W6 Semi-Bold"
       x="-1259.7434"
       y="-453.63782"
       id="text3248"><tspan
         sodipodi:role="line"
         id="tspan3250"
         x="-1259.7434"
         y="-453.63782"
         style="font-size:7px;fill:#646464;fill-opacity:1">widgets</tspan></text>
    <text
       xml:space="preserve"
       style="font-size:14px;font-style:normal;font-variant:normal;font-weight:bold;font-stretch:normal;fill:#646464;fill-opacity:1;stroke:none;stroke-width:1px;stroke-linecap:butt;stroke-linejoin:miter;stroke-opacity:1;font-family:Hiragino Mincho Pro W6;-inkscape-font-specification:Hiragino Mincho Pro W6 Semi-Bold"
       x="-1340.7321"
       y="-453.70639"
       id="text3252"><tspan
         sodipodi:role="line"
         id="tspan3254"
         x="-1340.7321"
         y="-453.70639"
         style="font-size:7px;fill:#646464;fill-opacity:1">synchronized</tspan></text>
    <text
       xml:space="preserve"
       style="font-size:14px;font-style:normal;font-variant:normal;font-weight:bold;font-stretch:normal;fill:#646464;fill-opacity:1;stroke:none;stroke-width:1px;stroke-linecap:butt;stroke-linejoin:miter;stroke-opacity:1;font-family:Hiragino Mincho Pro W6;-inkscape-font-specification:Hiragino Mincho Pro W6 Semi-Bold"
       x="-1344"
       y="-482.47681"
       id="text3256"><tspan
         sodipodi:role="line"
         id="tspan3258"
         x="-1344"
         y="-482.47681"
         style="font-size:7px;fill:#646464;fill-opacity:1">xpath</tspan></text>
    <g
       style="font-size:14px;font-style:normal;font-variant:normal;font-weight:bold;font-stretch:normal;fill:#646464;fill-opacity:1;stroke:none;display:inline;font-family:Hiragino Mincho Pro W6;-inkscape-font-specification:Hiragino Mincho Pro W6 Semi-Bold"
       id="text3353">
      <path
         id="path6782"
         style="font-size:7px;fill:#646464"
         d="m -1266.9135,-482.67537 1.974,0 0,-0.168 c -0.511,-0.014 -0.553,-0.063 -0.553,-0.707 l 0,-3.031 c 0,-0.476 0.014,-0.924 0.042,-1.442 l -1.456,0.077 0,0.161 c 0.504,0 0.553,0.063 0.553,0.679 l 0,3.556 c 0,0.644 -0.042,0.693 -0.56,0.707 l 0,0.168 m -0.3928,-0.189 c -0.455,-0.007 -0.483,-0.049 -0.483,-0.826 0,-0.049 0,-0.182 0.01,-0.385 l 0.01,-0.609 0.01,-0.616 c 0,-0.434 -0.084,-0.686 -0.273,-0.875 -0.21,-0.196 -0.553,-0.287 -1.043,-0.287 -0.476,0 -0.861,0.084 -1.155,0.266 -0.273,0.175 -0.441,0.413 -0.441,0.658 0,0.21 0.175,0.322 0.497,0.322 0.294,0 0.413,-0.091 0.427,-0.343 0.021,-0.266 0.042,-0.378 0.119,-0.504 0.098,-0.168 0.245,-0.238 0.469,-0.238 0.42,0 0.553,0.217 0.553,0.966 l 0,0.462 c -0.441,0.021 -0.812,0.07 -1.162,0.133 -0.749,0.147 -1.127,0.518 -1.127,1.127 0,0.637 0.42,1.036 1.085,1.036 0.462,0 0.84,-0.175 1.211,-0.574 0.035,0.434 0.105,0.539 0.329,0.539 0.182,0 0.553,-0.035 0.973,-0.084 l 0,-0.168 m -1.309,-1.309 c 0,0.406 -0.035,0.637 -0.133,0.819 -0.133,0.287 -0.399,0.469 -0.679,0.469 -0.35,0 -0.574,-0.336 -0.574,-0.833 0,-0.658 0.364,-0.917 1.386,-0.994 l 0,0.539 m -2.724,1.498 0,-0.161 c -0.385,-0.007 -0.455,-0.119 -0.455,-0.735 l 0,-1.47 c 0,-0.441 0,-0.441 0.042,-1.407 l -1.421,0.091 0,0.168 c 0.301,0.007 0.343,0.021 0.413,0.077 0.077,0.084 0.105,0.224 0.105,0.609 l 0,1.113 c 0,0.385 -0.035,0.609 -0.133,0.84 -0.168,0.378 -0.441,0.595 -0.763,0.595 -0.245,0 -0.413,-0.119 -0.49,-0.35 -0.077,-0.203 -0.098,-0.378 -0.098,-0.861 0,-0.014 0,-0.084 0,-0.133 l 0.01,-0.749 c 0.01,-0.623 0.021,-0.889 0.063,-1.4 l -1.421,0.091 0,0.168 c 0.315,0.007 0.371,0.028 0.441,0.112 0.056,0.084 0.077,0.238 0.077,0.518 0,0.021 -0.01,0.035 -0.01,0.056 l -0.014,1.421 0,0.105 c 0,0.427 0.042,0.672 0.133,0.868 0.161,0.343 0.49,0.532 0.91,0.532 0.518,0 1.001,-0.287 1.295,-0.777 0,0.287 0.014,0.56 0.035,0.742 l 1.281,-0.063 m -5.2997,-3.458 0.847,0 0,-0.224 -0.847,0 c 0,-0.637 0.01,-0.861 0.021,-1.148 l -0.357,0.035 c -0.063,0.35 -0.133,0.56 -0.259,0.756 -0.161,0.252 -0.357,0.357 -0.672,0.371 l 0,0.21 0.406,0 0,2.205 c 0,0.623 0.021,0.791 0.105,0.973 0.133,0.245 0.413,0.385 0.798,0.385 0.364,0 0.672,-0.112 0.966,-0.35 l -0.105,-0.182 c -0.175,0.147 -0.343,0.224 -0.49,0.224 -0.147,0 -0.287,-0.105 -0.343,-0.266 -0.049,-0.14 -0.07,-0.322 -0.07,-0.63 l 0,-2.359 m -4.5429,-0.224 0,0.168 c 0.448,0 0.511,0.084 0.511,0.686 l 0,1.953 c 0,0.63 -0.049,0.7 -0.539,0.707 l 0,0.168 1.96,0 0,-0.168 c -0.518,-0.021 -0.56,-0.07 -0.56,-0.707 l 0,-1.302 c 0,-0.336 0.056,-0.574 0.168,-0.784 0.119,-0.203 0.259,-0.322 0.392,-0.329 0.01,0 0.014,0 0.014,0 0.112,0 0.147,0.049 0.203,0.245 0.049,0.161 0.147,0.224 0.336,0.224 0.294,0 0.504,-0.175 0.504,-0.427 0,-0.308 -0.252,-0.539 -0.595,-0.539 -0.406,0 -0.763,0.273 -1.043,0.798 0,-0.091 0,-0.161 0,-0.21 0,-0.14 -0.01,-0.308 -0.021,-0.574 l -1.33,0.091 m -2.3516,0 0,0.168 c 0.497,0.007 0.532,0.056 0.532,0.686 l 0,1.953 c 0,0.63 -0.049,0.7 -0.553,0.707 l 0,0.168 1.96,0 0,-0.168 c -0.497,-0.007 -0.546,-0.077 -0.546,-0.707 l 0,-1.533 c 0,-0.448 0.014,-0.938 0.042,-1.365 l -1.435,0.091 m 0.462,-1.204 c 0,0.28 0.224,0.504 0.504,0.504 0.28,0 0.511,-0.224 0.511,-0.504 0,-0.28 -0.231,-0.511 -0.511,-0.511 -0.28,0 -0.504,0.231 -0.504,0.511 m -2.5175,4.165 -0.77,-2.135 c -0.042,-0.126 -0.084,-0.273 -0.084,-0.357 0,-0.189 0.161,-0.294 0.469,-0.301 l 0,-0.168 -1.897,0 0,0.161 c 0.301,0.028 0.406,0.14 0.588,0.595 l 1.127,2.975 0.546,0 0.994,-2.723 c 0.231,-0.602 0.42,-0.805 0.805,-0.84 l 0,-0.168 -1.561,0 0,0.161 c 0.168,0.007 0.238,0.021 0.336,0.056 0.14,0.056 0.231,0.189 0.231,0.336 0,0.147 -0.028,0.301 -0.091,0.476 l -0.693,1.932"
         inkscape:connector-curvature="0" />
      <path
         id="path6788"
         style="font-size:7px;fill:#646464"
         d="m -1252.8138,-482.691 1.974,0 0,-0.168 c -0.511,-0.014 -0.553,-0.063 -0.553,-0.707 l 0,-3.031 c 0,-0.476 0.014,-0.924 0.042,-1.442 l -1.456,0.077 0,0.161 c 0.504,0 0.553,0.063 0.553,0.679 l 0,3.556 c 0,0.644 -0.042,0.693 -0.56,0.707 l 0,0.168 m -5.4637,-3.773 -1.379,0.091 0,0.168 c 0.469,0.007 0.525,0.084 0.525,0.679 l 0,1.96 c 0,0.637 -0.049,0.7 -0.539,0.707 l 0,0.168 1.911,0 0,-0.168 c -0.462,-0.007 -0.511,-0.07 -0.511,-0.707 l 0,-1.428 c 0,-0.637 0.385,-1.162 0.847,-1.162 0.392,0 0.574,0.336 0.574,1.036 l 0,1.554 c 0,0.63 -0.049,0.7 -0.511,0.707 l 0,0.168 1.883,0 0,-0.168 c -0.469,-0.007 -0.518,-0.077 -0.518,-0.707 l 0,-1.491 c 0,-0.259 0.07,-0.483 0.217,-0.707 0.175,-0.266 0.371,-0.392 0.63,-0.392 0.413,0 0.581,0.301 0.581,1.043 l 0,1.547 c 0,0.63 -0.049,0.7 -0.511,0.707 l 0,0.168 1.911,0 0,-0.168 c -0.49,-0.007 -0.539,-0.077 -0.539,-0.707 l 0,-1.554 c 0,-0.476 -0.056,-0.735 -0.21,-0.952 -0.189,-0.266 -0.511,-0.406 -0.917,-0.406 -0.525,0 -0.903,0.224 -1.211,0.742 -0.126,-0.504 -0.462,-0.742 -1.001,-0.742 -0.532,0 -0.945,0.245 -1.225,0.714 l -0.01,-0.7 m -3.8272,2.233 0.581,0.889 c 0.07,0.098 0.105,0.189 0.105,0.266 0,0.147 -0.119,0.217 -0.399,0.224 l 0,0.161 1.89,0 0,-0.154 c -0.287,-0.049 -0.434,-0.161 -0.672,-0.511 l -0.938,-1.407 0.497,-0.679 c 0.378,-0.511 0.679,-0.735 1.043,-0.77 l 0,-0.161 -1.533,0 0,0.161 c 0.301,0.014 0.441,0.098 0.441,0.259 0,0.119 -0.056,0.266 -0.182,0.441 l -0.392,0.567 -0.483,-0.749 c -0.098,-0.147 -0.126,-0.217 -0.126,-0.308 0,-0.147 0.091,-0.203 0.343,-0.21 l 0,-0.161 -1.827,0 0,0.161 c 0.301,0.056 0.427,0.147 0.672,0.518 l 0.847,1.267 -0.609,0.833 c -0.364,0.497 -0.623,0.693 -0.987,0.749 l 0,0.154 1.568,0 0,-0.161 c -0.343,-0.028 -0.497,-0.119 -0.497,-0.301 0,-0.112 0.056,-0.245 0.168,-0.399 l 0.49,-0.679"
         inkscape:connector-curvature="0" />
    </g>
  </g>
</svg>
