<?xml version="1.0" encoding="UTF-8" standalone="no"?>
<!-- Created with Inkscape (http://www.inkscape.org/) -->
<svg
   xmlns:dc="http://purl.org/dc/elements/1.1/"
   xmlns:cc="http://creativecommons.org/ns#"
   xmlns:rdf="http://www.w3.org/1999/02/22-rdf-syntax-ns#"
   xmlns:svg="http://www.w3.org/2000/svg"
   xmlns="http://www.w3.org/2000/svg"
   xmlns:sodipodi="http://sodipodi.sourceforge.net/DTD/sodipodi-0.dtd"
   xmlns:inkscape="http://www.inkscape.org/namespaces/inkscape"
   width="744.09448819"
   height="1052.3622047"
   id="svg2610"
   sodipodi:version="0.32"
   inkscape:version="0.46"
   sodipodi:docname="xidgets.svg"
   inkscape:output_extension="org.inkscape.output.svg.inkscape"
   inkscape:export-filename="/Users/bdunnagan/Desktop/xidgets.png"
   inkscape:export-xdpi="414.16864"
   inkscape:export-ydpi="414.16864">
  <sodipodi:namedview
     id="base"
     pagecolor="#ffffff"
     bordercolor="#ffffff"
     borderopacity="0.0"
     inkscape:pageopacity="0.0"
     inkscape:pageshadow="0"
     inkscape:zoom="1.979899"
     inkscape:cx="-1273.669"
     inkscape:cy="1516.338"
     inkscape:document-units="px"
     inkscape:current-layer="layer1"
     showgrid="false"
     inkscape:window-width="1920"
     inkscape:window-height="1152"
     inkscape:window-x="0"
     inkscape:window-y="0" />
  <defs
     id="defs2612">
    <inkscape:perspective
       sodipodi:type="inkscape:persp3d"
       inkscape:vp_x="0 : 526.18109 : 1"
       inkscape:vp_y="0 : 1000 : 0"
       inkscape:vp_z="744.09448 : 526.18109 : 1"
       inkscape:persp3d-origin="372.04724 : 350.78739 : 1"
       id="perspective2618" />
  </defs>
  <metadata
     id="metadata2615">
    <rdf:RDF>
      <cc:Work
         rdf:about="">
        <dc:format>image/svg+xml</dc:format>
        <dc:type
           rdf:resource="http://purl.org/dc/dcmitype/StillImage" />
      </cc:Work>
    </rdf:RDF>
  </metadata>
  <g
     inkscape:label="Layer 1"
     inkscape:groupmode="layer"
     id="layer1">
    <path
       style="fill:none;fill-rule:evenodd;stroke:#bcbcbc;stroke-width:0.71396244px;stroke-linecap:butt;stroke-linejoin:miter;stroke-opacity:1"
       d="M -1324.7499,-484.91186 L -1343.0001,-484.9237"
       id="path5830"
       sodipodi:nodetypes="cc" />
    <text
       id="text4914"
       y="-463.8768"
       x="-1346.5333"
       style="font-size:36px;font-style:normal;font-variant:normal;font-weight:normal;font-stretch:normal;fill:#000000;fill-opacity:1;stroke:none;stroke-width:1px;stroke-linecap:butt;stroke-linejoin:miter;stroke-opacity:1;font-family:Bordeaux Roman Bold LET;-inkscape-font-specification:Bordeaux Roman Bold LET"
       xml:space="preserve"><tspan
         y="-463.8768"
         x="-1346.5333"
         id="tspan4916"
         sodipodi:role="line" /></text>
    <text
       id="text4927"
       y="-404.78287"
       x="-1370.2719"
       style="font-size:36px;font-style:normal;font-variant:normal;font-weight:normal;font-stretch:normal;fill:#000000;fill-opacity:1;stroke:none;stroke-width:1px;stroke-linecap:butt;stroke-linejoin:miter;stroke-opacity:1;font-family:Georgia;-inkscape-font-specification:Georgia"
       xml:space="preserve"><tspan
         y="-404.78287"
         x="-1370.2719"
         id="tspan4929"
         sodipodi:role="line" /></text>
    <path
       id="text4931"
       d="M -1359.9619,-471.06818 L -1346.3899,-478.52018 L -1346.3899,-481.04018 L -1362.8419,-471.53618 L -1362.8419,-470.60018 L -1346.3899,-461.06018 L -1346.3899,-463.58018 L -1359.9619,-471.06818 M -1336.5619,-468.40418 L -1333.5739,-463.86818 C -1333.2139,-463.36418 -1333.0339,-462.89618 -1333.0339,-462.50018 C -1333.0339,-461.78018 -1333.6459,-461.42018 -1335.0859,-461.38418 L -1335.0859,-460.55618 L -1325.4379,-460.55618 L -1325.4379,-461.34818 C -1326.9139,-461.60018 -1327.6699,-462.17618 -1328.8579,-463.94018 L -1333.6459,-471.14018 L -1331.1259,-474.59618 C -1329.1819,-477.22418 -1327.6699,-478.34018 -1325.7979,-478.52018 L -1325.7979,-479.34818 L -1333.6099,-479.34818 L -1333.6099,-478.52018 C -1332.0979,-478.44818 -1331.3779,-478.01618 -1331.3779,-477.22418 C -1331.3779,-476.61218 -1331.6659,-475.85618 -1332.3139,-474.95618 L -1334.2939,-472.07618 L -1336.7779,-475.89218 C -1337.2819,-476.64818 -1337.4259,-477.00818 -1337.4259,-477.47618 C -1337.4259,-478.19618 -1336.9579,-478.48418 -1335.6619,-478.52018 L -1335.6619,-479.34818 L -1344.9859,-479.34818 L -1344.9859,-478.52018 C -1343.4379,-478.23218 -1342.8259,-477.76418 -1341.5659,-475.89218 L -1337.2459,-469.41218 L -1340.3419,-465.16418 C -1342.2139,-462.60818 -1343.5099,-461.63618 -1345.3819,-461.34818 L -1345.3819,-460.55618 L -1337.3899,-460.55618 L -1337.3899,-461.38418 C -1339.1179,-461.52818 -1339.9099,-461.99618 -1339.9099,-462.89618 C -1339.9099,-463.47218 -1339.6219,-464.15618 -1339.0459,-464.94818 L -1336.5619,-468.40418 M -1323.9884,-479.34818 L -1323.9884,-478.48418 C -1321.4684,-478.44818 -1321.2884,-478.19618 -1321.2884,-474.99218 L -1321.2884,-465.02018 C -1321.2884,-461.81618 -1321.5404,-461.45618 -1324.0964,-461.42018 L -1324.0964,-460.55618 L -1314.0884,-460.55618 L -1314.0884,-461.42018 C -1316.6444,-461.45618 -1316.8964,-461.81618 -1316.8964,-465.02018 L -1316.8964,-472.83218 C -1316.8964,-475.13618 -1316.8244,-477.65618 -1316.6804,-479.81618 L -1323.9884,-479.34818 M -1321.6484,-485.50418 C -1321.6484,-484.06418 -1320.4964,-482.91218 -1319.0564,-482.91218 C -1317.6164,-482.91218 -1316.4644,-484.06418 -1316.4644,-485.50418 C -1316.4644,-486.94418 -1317.6164,-488.09618 -1319.0564,-488.09618 C -1320.4964,-488.09618 -1321.6484,-486.94418 -1321.6484,-485.50418 M -1300.8049,-487.48418 L -1300.8049,-486.65618 C -1298.2849,-486.62018 -1298.0689,-486.36818 -1298.0689,-483.02018 L -1298.0689,-477.83618 C -1299.4729,-479.24018 -1301.0569,-479.88818 -1303.0369,-479.88818 C -1308.0769,-479.88818 -1311.3169,-475.82018 -1311.3169,-469.44818 C -1311.3169,-466.35218 -1310.4889,-463.83218 -1308.9409,-462.17618 C -1307.6089,-460.80818 -1305.7369,-460.01618 -1303.6849,-460.01618 C -1301.3089,-460.01618 -1299.5449,-460.88018 -1297.7809,-462.86018 L -1297.6369,-460.23218 L -1291.3009,-460.55618 L -1291.3009,-461.38418 C -1292.4889,-461.42018 -1292.6689,-461.45618 -1292.9929,-461.67218 C -1293.5329,-462.10418 -1293.6769,-463.07618 -1293.6769,-465.99218 L -1293.6769,-480.53618 C -1293.6769,-483.30818 -1293.6049,-485.18018 -1293.4609,-487.88018 L -1300.8049,-487.48418 M -1297.9609,-470.24018 C -1297.9609,-464.51619 -1299.6169,-461.13218 -1302.3889,-461.13218 C -1303.3969,-461.13218 -1304.2969,-461.60018 -1304.8729,-462.42818 C -1305.9529,-463.94018 -1306.5289,-466.67619 -1306.5289,-470.06018 C -1306.5289,-475.71218 -1304.9809,-478.91618 -1302.2449,-478.91618 C -1299.4729,-478.91618 -1297.9609,-475.82018 -1297.9609,-470.24018 M -1280.6466,-463.47218 C -1284.5706,-463.47218 -1285.4346,-463.76018 -1285.4346,-465.02018 C -1285.4346,-465.81218 -1285.0026,-466.31618 -1283.7786,-466.96418 C -1282.6266,-466.67618 -1281.6186,-466.56818 -1280.5746,-466.56818 C -1278.4506,-466.56818 -1276.5066,-467.14418 -1275.1386,-468.22418 C -1273.7706,-469.30418 -1272.9786,-471.10418 -1272.9786,-473.12018 C -1272.9786,-475.10018 -1273.5906,-476.46818 -1275.1026,-477.94418 L -1271.5746,-477.94418 L -1271.5746,-479.52818 C -1274.0946,-479.42018 -1275.3546,-479.38418 -1275.4266,-479.38418 C -1276.3266,-479.38418 -1276.7586,-479.42018 -1277.9106,-479.60018 C -1279.2066,-479.81618 -1279.9266,-479.88818 -1280.7546,-479.88818 C -1285.4706,-479.88818 -1288.5306,-477.15218 -1288.5306,-472.94018 C -1288.5306,-471.24818 -1287.9906,-469.73618 -1287.0546,-468.83618 C -1286.6226,-468.40418 -1286.1906,-468.08018 -1285.0026,-467.43218 L -1286.8386,-466.28018 C -1288.3146,-465.34418 -1288.6746,-464.80418 -1288.6746,-463.72418 C -1288.6746,-462.82418 -1288.3146,-461.99618 -1287.7026,-461.34818 C -1287.3066,-460.91618 -1286.9466,-460.70018 -1286.0826,-460.30418 C -1288.6386,-458.86418 -1288.9986,-458.43218 -1288.9986,-456.92018 C -1288.9986,-454.11218 -1286.0466,-452.56418 -1280.7906,-452.56418 C -1277.8746,-452.56418 -1275.4626,-453.10418 -1273.7346,-454.14818 C -1272.1506,-455.12018 -1271.1786,-456.92018 -1271.1786,-458.93618 C -1271.1786,-460.73618 -1271.9706,-462.06818 -1273.3386,-462.71618 C -1274.7066,-463.29218 -1275.8946,-463.47218 -1279.0266,-463.47218 L -1280.6466,-463.47218 M -1284.0666,-473.40818 C -1284.0666,-477.11618 -1282.9506,-479.06018 -1280.7546,-479.06018 C -1278.5586,-479.06018 -1277.5146,-477.15218 -1277.5146,-473.19218 C -1277.5146,-469.30419 -1278.5586,-467.39618 -1280.7546,-467.39618 C -1282.9146,-467.39618 -1284.0666,-469.52019 -1284.0666,-473.40818 M -1280.0706,-459.98018 C -1276.0026,-459.98018 -1274.4186,-459.22418 -1274.4186,-457.24418 C -1274.4186,-454.86818 -1276.5786,-453.46418 -1280.1066,-453.46418 C -1283.8146,-453.46418 -1285.6506,-454.90418 -1285.6506,-457.74818 C -1285.6506,-459.04418 -1285.2906,-459.76418 -1284.4986,-459.94418 L -1280.0706,-459.98018 M -1252.0328,-470.70818 C -1252.1048,-472.97618 -1252.2848,-474.05618 -1252.6808,-475.13618 C -1253.8688,-478.23218 -1256.4608,-479.88818 -1260.1328,-479.88818 C -1265.6048,-479.88818 -1269.1688,-475.92818 -1269.1688,-469.88018 C -1269.1688,-463.86819 -1265.4968,-460.01618 -1259.7728,-460.01618 C -1256.0648,-460.01618 -1253.6528,-461.52819 -1251.8528,-464.94818 L -1252.7528,-465.52418 C -1254.0848,-462.89618 -1256.2088,-461.42018 -1258.6928,-461.42018 C -1260.8888,-461.42018 -1262.5448,-462.60818 -1263.5888,-464.98418 C -1264.2368,-466.49618 -1264.4888,-468.04418 -1264.5248,-470.70818 L -1252.0328,-470.70818 M -1264.4888,-471.75218 C -1264.3448,-473.62418 -1264.1288,-474.77618 -1263.7328,-475.89218 C -1262.9768,-477.98018 -1261.7888,-479.06018 -1260.2408,-479.06018 C -1258.8368,-479.06018 -1257.8288,-478.16018 -1257.1448,-476.25218 C -1256.7488,-475.13618 -1256.6048,-474.02018 -1256.5328,-471.75218 L -1264.4888,-471.75218 M -1242.6891,-478.19618 L -1238.3331,-478.19618 L -1238.3331,-479.34818 L -1242.6891,-479.34818 C -1242.6891,-482.62418 -1242.6531,-483.74018 -1242.5811,-485.21618 L -1244.3811,-485.03618 C -1244.7051,-483.23618 -1245.0651,-482.19218 -1245.7131,-481.18418 C -1246.5411,-479.88818 -1247.5491,-479.34818 -1249.1331,-479.27618 L -1249.1331,-478.19618 L -1247.0811,-478.19618 L -1247.0811,-466.96418 C -1247.0811,-463.76018 -1246.9731,-462.89618 -1246.5411,-461.99618 C -1245.8571,-460.73618 -1244.4171,-460.01618 -1242.4731,-460.01618 C -1240.6011,-460.01618 -1239.0171,-460.59218 -1237.5411,-461.81618 L -1238.0451,-462.71618 C -1238.9451,-461.99618 -1239.8091,-461.60018 -1240.5651,-461.60018 C -1241.3211,-461.60018 -1242.0411,-462.14018 -1242.3291,-462.93218 C -1242.5811,-463.65218 -1242.6891,-464.58818 -1242.6891,-466.17218 L -1242.6891,-478.19618 M -1235.5184,-460.30418 C -1234.3304,-460.52018 -1234.2224,-460.52018 -1233.6824,-460.52018 C -1233.2504,-460.52018 -1232.8184,-460.48418 -1232.3864,-460.41218 C -1230.2624,-460.05218 -1229.7584,-459.98018 -1228.7144,-459.98018 C -1224.6464,-459.98018 -1222.2344,-462.24819 -1222.2344,-465.99218 C -1222.2344,-468.69218 -1223.4224,-470.09618 -1227.0944,-471.78818 C -1230.3344,-473.26418 -1230.3344,-473.26418 -1231.1264,-473.87618 C -1231.9184,-474.48818 -1232.2424,-475.13618 -1232.2424,-476.07218 C -1232.2424,-477.87218 -1230.9824,-479.06018 -1229.0384,-479.06018 C -1226.4464,-479.06018 -1224.9344,-477.11618 -1224.6824,-473.44418 L -1223.3504,-473.44418 L -1223.0264,-479.74418 C -1223.8544,-479.45618 -1224.2504,-479.38418 -1224.7544,-479.38418 C -1225.1504,-479.38418 -1225.3304,-479.42018 -1226.3384,-479.60018 C -1227.3824,-479.78018 -1228.3184,-479.88818 -1228.8944,-479.88818 C -1232.9624,-479.88818 -1235.5544,-477.65618 -1235.5544,-474.16418 C -1235.5544,-472.86818 -1235.1584,-471.82418 -1234.2944,-470.92418 C -1233.4304,-469.98818 -1232.5304,-469.41218 -1230.4064,-468.47618 C -1226.2304,-466.53218 -1225.2944,-465.74018 -1225.2944,-463.97618 C -1225.2944,-461.99618 -1226.6264,-460.84418 -1228.8224,-460.84418 C -1230.5864,-460.84418 -1231.8464,-461.56418 -1232.8544,-463.11218 C -1233.4304,-464.04818 -1233.7184,-465.02018 -1233.9344,-466.89218 L -1235.2304,-466.89218 L -1235.5184,-460.30418 M -1221.1324,-454.18418 L -1218.9724,-454.18418 L -1206.9844,-487.48418 L -1209.1444,-487.48418 L -1221.1324,-454.18418 M -1191.8453,-471.06818 L -1205.4173,-463.58018 L -1205.4173,-461.06018 L -1188.9653,-470.60018 L -1188.9653,-471.53618 L -1205.4173,-481.04018 L -1205.4173,-478.52018 L -1191.8453,-471.06818"
       style="font-size:36px;font-style:normal;font-variant:normal;font-weight:normal;font-stretch:normal;fill:#bcbcbc;fill-opacity:1;stroke:none;stroke-width:1px;stroke-linecap:butt;stroke-linejoin:miter;stroke-opacity:1;font-family:Gill Sans;-inkscape-font-specification:Gill Sans" />
    <text
       xml:space="preserve"
       style="font-size:14px;font-style:normal;font-variant:normal;font-weight:bold;font-stretch:normal;fill:#646464;fill-opacity:1;stroke:none;stroke-width:1px;stroke-linecap:butt;stroke-linejoin:miter;stroke-opacity:1;font-family:Hiragino Mincho Pro W6;-inkscape-font-specification:Hiragino Mincho Pro W6 Semi-Bold"
       x="-1342.4999"
       y="-452.45926"
       id="text5815"><tspan
         sodipodi:role="line"
         id="tspan5817"
         x="-1342.4999"
         y="-452.45926"
         style="font-size:8px;fill:#646464;fill-opacity:1">xml widgets</tspan></text>
    <text
       xml:space="preserve"
       style="font-size:14px;font-style:normal;font-variant:normal;font-weight:bold;font-stretch:normal;fill:#646464;fill-opacity:1;stroke:none;stroke-width:1px;stroke-linecap:butt;stroke-linejoin:miter;stroke-opacity:1;font-family:Hiragino Mincho Pro W6;-inkscape-font-specification:Hiragino Mincho Pro W6 Semi-Bold"
       x="-1290.2267"
       y="-483.11752"
       id="text5819"><tspan
         sodipodi:role="line"
         id="tspan5821"
         x="-1290.2267"
         y="-483.11752"
         style="font-size:8px;fill:#646464;fill-opacity:1">xpath data</tspan></text>
    <text
       xml:space="preserve"
       style="font-size:14px;font-style:normal;font-variant:normal;font-weight:bold;font-stretch:normal;fill:#646464;fill-opacity:1;stroke:none;stroke-width:1px;stroke-linecap:butt;stroke-linejoin:miter;stroke-opacity:1;font-family:Hiragino Mincho Pro W6;-inkscape-font-specification:Hiragino Mincho Pro W6 Semi-Bold"
       x="-1261.9052"
       y="-452.3858"
       id="text5824"><tspan
         sodipodi:role="line"
         id="tspan5826"
         x="-1261.9052"
         y="-452.3858"
         style="font-size:8px;fill:#646464;fill-opacity:1">binding</tspan></text>
    <path
       style="fill:none;fill-rule:evenodd;stroke:#bcbcbc;stroke-width:0.87194740999999998px;stroke-linecap:butt;stroke-linejoin:miter;stroke-opacity:1"
       d="M -1215.3929,-484.99085 L -1238.378,-484.84471"
       id="path5832"
       sodipodi:nodetypes="cc" />
    <path
       style="fill:none;fill-rule:evenodd;stroke:#bcbcbc;stroke-width:0.73492825px;stroke-linecap:butt;stroke-linejoin:miter;stroke-opacity:1"
       d="M -1302.5054,-484.90515 L -1313.1584,-485.0223"
       id="path5834"
       sodipodi:nodetypes="cc" />
    <path
       style="fill:none;fill-rule:evenodd;stroke:#bcbcbc;stroke-width:0.64907116px;stroke-linecap:butt;stroke-linejoin:miter;stroke-opacity:1"
       d="M -1264.0747,-455.44154 L -1269.1222,-455.39199"
       id="path5836"
       sodipodi:nodetypes="cc" />
    <path
       style="fill:none;fill-rule:evenodd;stroke:#bcbcbc;stroke-width:0.62343752px;stroke-linecap:butt;stroke-linejoin:miter;stroke-opacity:1"
       d="M -1224.9688,-455.12362 L -1228.9281,-455.16285"
       id="path5838"
       sodipodi:nodetypes="cc" />
  </g>
</svg>
